PathFileType	4	(X/Y/Z)	 1.9Hzhigh3min.trc
DataRate	CameraRate	NumFrames	NumMarkers	Units	OrigDataRate	OrigDataStartFrame	OrigNumFrames
200	200	9	43	m	200	751	1000
Frame#	Time	C7			LSH			RSH			MAN			RASI			LASI			HIPR			HIPL			RPSI			LPSI			COX			RTHI1			RTHI2			RTHI3			RTHI4			RLKN			RMKN			RSHA1			RSHA2			RSHA3			RSHA4			RLMAL			RMMAL			RHEEL			RMET5			RMET1			RTOE			LTHI1			LTHI2			LTHI3			LTHI4			LLKN			LMKN			LSHA1			LSHA2			LSHA3			LSHA4			LLMAL			LMMAL			LHEEL			LMET5			LMET1			LTOE			
		X1	Y1	Z1	X2	Y2	Z2	X3	Y3	Z3	X4	Y4	Z4	X5	Y5	Z5	X6	Y6	Z6	X7	Y7	Z7	X8	Y8	Z8	X9	Y9	Z9	X10	Y10	Z10	X11	Y11	Z11	X12	Y12	Z12	X13	Y13	Z13	X14	Y14	Z14	X15	Y15	Z15	X16	Y16	Z16	X17	Y17	Z17	X18	Y18	Z18	X19	Y19	Z19	X20	Y20	Z20	X21	Y21	Z21	X22	Y22	Z22	X23	Y23	Z23	X24	Y24	Z24	X25	Y25	Z25	X26	Y26	Z26	X27	Y27	Z27	X28	Y28	Z28	X29	Y29	Z29	X30	Y30	Z30	X31	Y31	Z31	X32	Y32	Z32	X33	Y33	Z33	X34	Y34	Z34	X35	Y35	Z35	X36	Y36	Z36	X37	Y37	Z37	X38	Y38	Z38	X39	Y39	Z39	X40	Y40	Z40	X41	Y41	Z41	X42	Y42	Z42	X43	Y43	Z43	
751	3.7550	-0.312155	1.400610	-0.516053	-0.289353	1.399032	-0.693678	-0.246292	1.383675	-0.340296	-0.190383	1.324766	-0.523167	-0.215826	0.917238	-0.415018	-0.216170	0.907289	-0.638450	-0.270303	0.956712	-0.382193	-0.297878	0.945025	-0.668796	-0.369180	0.939145	-0.469333	-0.369025	0.934971	-0.572422	-0.372849	0.929639	-0.519192	-0.267567	0.715286	-0.334048	-0.245391	0.660282	-0.326900	-0.184729	0.681504	-0.336944	-0.200265	0.740154	-0.346723	-0.192671	0.404364	-0.343096	-0.195508	0.403219	-0.443537	-0.343104	0.240453	-0.352917	-0.368464	0.209027	-0.367109	-0.314599	0.180863	-0.377960	-0.294481	0.214257	-0.367100	-0.405598	0.098297	-0.387964	-0.369652	0.111975	-0.466920	-0.454448	0.106975	-0.435656	-0.316437	0.033817	-0.352419	-0.265840	0.045382	-0.424989	-0.241275	0.036232	-0.420944	-0.290048	0.695459	-0.708055	-0.261940	0.642717	-0.721659	-0.203731	0.669441	-0.731051	-0.223374	0.725495	-0.719326	-0.166279	0.417264	-0.731946	-0.165040	0.412487	-0.629254	-0.324077	0.236096	-0.742673	-0.347255	0.204071	-0.733912	-0.294048	0.176826	-0.716426	-0.276101	0.215687	-0.728305	-0.373120	0.106601	-0.728320	-0.365953	0.121155	-0.647601	-0.438171	0.101786	-0.689897	-0.289176	0.039358	-0.741133	-0.248626	0.045913	-0.661419	-0.223379	0.037575	-0.661757	
752	3.7600	-0.312671	1.402038	-0.516052	-0.289851	1.401112	-0.693400	-0.246467	1.385669	-0.340501	-0.190762	1.326470	-0.523228	-0.215737	0.918661	-0.415235	-0.215762	0.908782	-0.638165	-0.269565	0.959023	-0.382553	-0.297053	0.947111	-0.668679	-0.369098	0.940693	-0.469286	-0.368885	0.936542	-0.572485	-0.372710	0.931098	-0.519209	-0.267628	0.716776	-0.333918	-0.245396	0.661807	-0.326671	-0.184753	0.683079	-0.336678	-0.200327	0.741703	-0.346554	-0.192462	0.405919	-0.342569	-0.194939	0.404638	-0.443004	-0.342691	0.241819	-0.352621	-0.367972	0.210390	-0.366791	-0.314031	0.182227	-0.377504	-0.293978	0.215647	-0.366629	-0.404911	0.099563	-0.387667	-0.368772	0.113193	-0.466512	-0.453671	0.108510	-0.435404	-0.316203	0.033910	-0.352457	-0.265578	0.045351	-0.424960	-0.241068	0.036197	-0.420992	-0.289774	0.697004	-0.707994	-0.261680	0.644207	-0.721603	-0.203456	0.670917	-0.730923	-0.223093	0.726984	-0.719208	-0.166043	0.418717	-0.731850	-0.164687	0.413906	-0.629236	-0.323579	0.237283	-0.742889	-0.346693	0.205274	-0.734151	-0.293458	0.178019	-0.716755	-0.275567	0.216917	-0.728559	-0.372411	0.107697	-0.728713	-0.365284	0.122209	-0.648040	-0.437472	0.103049	-0.690405	-0.288864	0.039461	-0.741228	-0.248500	0.045865	-0.661416	-0.223305	0.037543	-0.661673	
753	3.7650	-0.313234	1.404308	-0.516006	-0.290393	1.404070	-0.693091	-0.246620	1.388501	-0.340694	-0.191173	1.329001	-0.523286	-0.215578	0.920896	-0.415326	-0.215196	0.911203	-0.637822	-0.268827	0.961955	-0.382866	-0.296056	0.949959	-0.668518	-0.368904	0.942927	-0.469278	-0.368587	0.938839	-0.572538	-0.372431	0.933293	-0.519245	-0.267700	0.719014	-0.333828	-0.245463	0.664054	-0.326513	-0.184820	0.685316	-0.336505	-0.200384	0.743937	-0.346445	-0.192512	0.408183	-0.342172	-0.194702	0.406717	-0.442583	-0.342324	0.243680	-0.352237	-0.367509	0.212172	-0.366378	-0.313423	0.184099	-0.376936	-0.293478	0.217594	-0.366086	-0.404083	0.101166	-0.387163	-0.367807	0.114747	-0.465893	-0.452767	0.110358	-0.434833	-0.315878	0.034051	-0.352474	-0.265297	0.045345	-0.424939	-0.240876	0.036157	-0.421099	-0.289442	0.699364	-0.707976	-0.261448	0.646486	-0.721528	-0.203144	0.673085	-0.730672	-0.222700	0.729188	-0.718982	-0.166158	0.420828	-0.731598	-0.164810	0.415924	-0.629098	-0.323129	0.238858	-0.743273	-0.346132	0.206798	-0.734596	-0.292854	0.179646	-0.717235	-0.275065	0.218613	-0.728920	-0.371546	0.109068	-0.729399	-0.364602	0.123537	-0.648780	-0.436629	0.104578	-0.691343	-0.288405	0.039573	-0.741412	-0.248410	0.045817	-0.661430	-0.223281	0.037519	-0.661566	
754	3.7700	-0.313866	1.407379	-0.515917	-0.291014	1.407863	-0.692751	-0.246795	1.392149	-0.340870	-0.191630	1.332359	-0.523334	-0.215329	0.923917	-0.415281	-0.214481	0.914485	-0.637464	-0.268170	0.965410	-0.383096	-0.294973	0.953495	-0.668320	-0.368576	0.945833	-0.469315	-0.368118	0.941839	-0.572589	-0.371997	0.936209	-0.519306	-0.267795	0.721976	-0.333774	-0.245621	0.666999	-0.326419	-0.184952	0.688175	-0.336423	-0.200449	0.746816	-0.346390	-0.192913	0.411117	-0.341894	-0.194872	0.409415	-0.442274	-0.342072	0.245978	-0.351797	-0.367097	0.214321	-0.365857	-0.312831	0.186447	-0.376262	-0.293046	0.220056	-0.365477	-0.403155	0.103031	-0.386473	-0.366781	0.116572	-0.465082	-0.451780	0.112490	-0.433995	-0.315482	0.034249	-0.352464	-0.265030	0.045305	-0.424910	-0.240738	0.036186	-0.421192	-0.289086	0.702538	-0.708011	-0.261273	0.649514	-0.721447	-0.202830	0.675911	-0.730319	-0.222230	0.732063	-0.718660	-0.166705	0.423547	-0.731223	-0.165477	0.418501	-0.628860	-0.322787	0.240765	-0.743788	-0.345626	0.208576	-0.735203	-0.292259	0.181661	-0.717835	-0.274651	0.220747	-0.729383	-0.370566	0.110674	-0.730325	-0.363919	0.125068	-0.649759	-0.435669	0.106330	-0.692632	-0.287831	0.039706	-0.741670	-0.248361	0.045780	-0.661458	-0.223306	0.037519	-0.661429	
755	3.7750	-0.314589	1.411198	-0.515787	-0.291736	1.412445	-0.692372	-0.247036	1.396582	-0.341028	-0.192133	1.336532	-0.523363	-0.214962	0.927691	-0.415112	-0.213626	0.918546	-0.637117	-0.267608	0.969358	-0.383238	-0.293843	0.957677	-0.668102	-0.368092	0.949404	-0.469388	-0.367467	0.945527	-0.572646	-0.371397	0.939820	-0.519387	-0.267932	0.725632	-0.333752	-0.245896	0.670606	-0.326386	-0.185172	0.691613	-0.336420	-0.200532	0.750303	-0.346389	-0.193751	0.414682	-0.341718	-0.195534	0.412691	-0.442053	-0.341963	0.248651	-0.351287	-0.366781	0.216783	-0.365253	-0.312296	0.189220	-0.375495	-0.292722	0.222983	-0.364809	-0.402162	0.105100	-0.385624	-0.365726	0.118619	-0.464108	-0.450737	0.114829	-0.432930	-0.315019	0.034500	-0.352424	-0.264769	0.045222	-0.424869	-0.240623	0.036221	-0.421303	-0.288757	0.706464	-0.708055	-0.261195	0.653252	-0.721369	-0.202554	0.679346	-0.729889	-0.221721	0.735569	-0.718264	-0.167736	0.426833	-0.730765	-0.166755	0.421610	-0.628534	-0.322597	0.242969	-0.744381	-0.345207	0.210590	-0.735914	-0.291712	0.184032	-0.718516	-0.274360	0.223277	-0.729913	-0.369497	0.112474	-0.731417	-0.363238	0.126776	-0.650914	-0.434602	0.108272	-0.694173	-0.287149	0.039832	-0.741941	-0.248346	0.045748	-0.661505	-0.223387	0.037529	-0.661291	
756	3.7800	-0.315424	1.415703	-0.515621	-0.292571	1.417767	-0.691948	-0.247394	1.401762	-0.341174	-0.192683	1.341501	-0.523369	-0.214455	0.932171	-0.414841	-0.212637	0.923300	-0.636791	-0.267107	0.973810	-0.383304	-0.292664	0.962493	-0.667847	-0.367433	0.953631	-0.469477	-0.366625	0.949883	-0.572717	-0.370622	0.944100	-0.519478	-0.268126	0.729948	-0.333760	-0.246313	0.674835	-0.326407	-0.185504	0.695585	-0.336489	-0.200646	0.754343	-0.346438	-0.195096	0.418835	-0.341620	-0.196744	0.416498	-0.441915	-0.342067	0.251637	-0.350747	-0.366603	0.219514	-0.364596	-0.311864	0.192369	-0.374648	-0.292550	0.226322	-0.364079	-0.401134	0.107337	-0.384648	-0.364654	0.120838	-0.462998	-0.449647	0.117322	-0.431682	-0.314500	0.034793	-0.352320	-0.264537	0.045110	-0.424802	-0.240534	0.036223	-0.421427	-0.288493	0.711087	-0.708103	-0.261255	0.657652	-0.721294	-0.202364	0.683341	-0.729402	-0.221222	0.739659	-0.717816	-0.169288	0.430636	-0.730254	-0.168681	0.425222	-0.628129	-0.322592	0.245434	-0.745000	-0.344913	0.212805	-0.736661	-0.291230	0.186735	-0.719235	-0.274220	0.226164	-0.730473	-0.368363	0.114438	-0.732594	-0.362523	0.128637	-0.652165	-0.433433	0.110380	-0.695846	-0.286376	0.039972	-0.742216	-0.248343	0.045724	-0.661562	-0.223493	0.037536	-0.661154	
757	3.7850	-0.316378	1.420832	-0.515429	-0.293528	1.423763	-0.691484	-0.247904	1.407640	-0.341312	-0.193291	1.347248	-0.523352	-0.213795	0.937298	-0.414501	-0.211517	0.928667	-0.636485	-0.266619	0.978787	-0.383308	-0.291414	0.967923	-0.667575	-0.366584	0.958497	-0.469563	-0.365592	0.954886	-0.572802	-0.369666	0.949004	-0.519568	-0.268391	0.734875	-0.333800	-0.246891	0.679641	-0.326474	-0.185963	0.700038	-0.336610	-0.200793	0.758889	-0.346536	-0.197008	0.423516	-0.341588	-0.198535	0.420800	-0.441850	-0.342388	0.254910	-0.350203	-0.366596	0.222473	-0.363914	-0.311565	0.195839	-0.373743	-0.292559	0.230028	-0.363299	-0.400101	0.109710	-0.383592	-0.363561	0.123197	-0.461776	-0.448508	0.119940	-0.430317	-0.313962	0.035067	-0.352212	-0.264337	0.045006	-0.424728	-0.240500	0.036220	-0.421572	-0.288323	0.716334	-0.708154	-0.261483	0.662660	-0.721225	-0.202306	0.687851	-0.728886	-0.220772	0.744285	-0.717342	-0.171374	0.434918	-0.729716	-0.171247	0.429315	-0.627667	-0.322792	0.248146	-0.745583	-0.344760	0.215229	-0.737384	-0.290828	0.189737	-0.719958	-0.274246	0.229386	-0.731032	-0.367185	0.116565	-0.733781	-0.361751	0.130634	-0.653436	-0.432160	0.112644	-0.697521	-0.285551	0.040141	-0.742456	-0.248336	0.045694	-0.661612	-0.223619	0.037539	-0.661012	
758	3.7900	-0.317451	1.426518	-0.515215	-0.294606	1.430369	-0.690978	-0.248594	1.414173	-0.341451	-0.193967	1.353724	-0.523313	-0.212972	0.943001	-0.414134	-0.210275	0.934578	-0.636193	-0.266072	0.984302	-0.383263	-0.290056	0.973948	-0.667299	-0.365545	0.963968	-0.469636	-0.364385	0.960507	-0.572897	-0.368544	0.954494	-0.519648	-0.268735	0.740365	-0.333866	-0.247637	0.684979	-0.326572	-0.186560	0.704924	-0.336771	-0.200980	0.763888	-0.346677	-0.199509	0.428682	-0.341605	-0.200908	0.425542	-0.441841	-0.342943	0.258429	-0.349676	-0.366739	0.225628	-0.363218	-0.311413	0.199620	-0.372788	-0.292772	0.234066	-0.362479	-0.399044	0.112190	-0.382449	-0.362430	0.125674	-0.460464	-0.447307	0.122676	-0.428914	-0.313377	0.035331	-0.352080	-0.264169	0.044910	-0.424651	-0.240515	0.036219	-0.421728	-0.288272	0.722199	-0.708209	-0.261907	0.668235	-0.721162	-0.202415	0.692832	-0.728368	-0.220404	0.749405	-0.716863	-0.173986	0.439648	-0.729169	-0.174402	0.433859	-0.627168	-0.323205	0.251092	-0.746083	-0.344741	0.217848	-0.738029	-0.290504	0.193037	-0.720667	-0.274447	0.232937	-0.731565	-0.365973	0.118870	-0.734913	-0.360881	0.132766	-0.654663	-0.430778	0.115078	-0.699101	-0.284709	0.040373	-0.742649	-0.248324	0.045670	-0.661673	-0.223760	0.037543	-0.660883	
759	3.7950	-0.318617	1.432705	-0.514997	-0.295791	1.437515	-0.690427	-0.249467	1.421290	-0.341595	-0.194702	1.360864	-0.523243	-0.211970	0.949204	-0.413774	-0.208919	0.940972	-0.635915	-0.265407	0.990377	-0.383197	-0.288558	0.980524	-0.667020	-0.364325	0.970001	-0.469691	-0.363004	0.966707	-0.573004	-0.367259	0.960524	-0.519711	-0.269163	0.746367	-0.333957	-0.248555	0.690795	-0.326698	-0.187301	0.710194	-0.336956	-0.201227	0.769287	-0.346856	-0.202593	0.434293	-0.341660	-0.203837	0.430678	-0.441881	-0.343734	0.262165	-0.349174	-0.367045	0.228955	-0.362540	-0.311400	0.203677	-0.371789	-0.293173	0.238405	-0.361625	-0.397969	0.114777	-0.381242	-0.361237	0.128266	-0.459081	-0.446020	0.125493	-0.427512	-0.312747	0.035583	-0.351917	-0.264013	0.044848	-0.424568	-0.240571	0.036201	-0.421875	-0.288361	0.728625	-0.708264	-0.262532	0.674326	-0.721107	-0.202708	0.698242	-0.727863	-0.220135	0.754979	-0.716390	-0.177101	0.444800	-0.728629	-0.178070	0.438825	-0.626650	-0.323827	0.254281	-0.746462	-0.344843	0.220682	-0.738553	-0.290256	0.196636	-0.721335	-0.274810	0.236807	-0.732041	-0.364726	0.121354	-0.735937	-0.359868	0.135044	-0.655803	-0.429271	0.117682	-0.700479	-0.283866	0.040665	-0.742777	-0.248279	0.045648	-0.661740	-0.223897	0.037530	-0.660789	
